<?xml version="1.0" encoding="UTF-8" standalone="no"?>
<!-- Created with Inkscape (http://www.inkscape.org/) -->

<svg
   xmlns:dc="http://purl.org/dc/elements/1.1/"
   xmlns:cc="http://creativecommons.org/ns#"
   xmlns:rdf="http://www.w3.org/1999/02/22-rdf-syntax-ns#"
   xmlns:svg="http://www.w3.org/2000/svg"
   xmlns="http://www.w3.org/2000/svg"
   xmlns:xlink="http://www.w3.org/1999/xlink"
   xmlns:sodipodi="http://sodipodi.sourceforge.net/DTD/sodipodi-0.dtd"
   xmlns:inkscape="http://www.inkscape.org/namespaces/inkscape"
   width="210mm"
   height="297mm"
   viewBox="0 0 744.09448819 1052.3622047"
   id="svg2"
   version="1.1"
   inkscape:version="0.91 r13725"
   sodipodi:docname="logo.svg">
  <defs
     id="defs4">
    <linearGradient
       inkscape:collect="always"
       id="linearGradient4180">
      <stop
         style="stop-color:#008e78;stop-opacity:1;"
         offset="0"
         id="stop4182" />
      <stop
         style="stop-color:#008e78;stop-opacity:0;"
         offset="1"
         id="stop4184" />
    </linearGradient>
    <linearGradient
       id="Light_O_to_O"
       inkscape:collect="always">
      <stop
         style="stop-color:#ffd680;stop-opacity:1"
         offset="0"
         id="stop6909" />
      <stop
         style="stop-color:#ff6600;stop-opacity:1"
         offset="1"
         id="stop6911" />
    </linearGradient>
    <linearGradient
       inkscape:collect="always"
       id="Light_B_to_B-7">
      <stop
         id="stop6867"
         offset="0"
         style="stop-color:#80ffe6;stop-opacity:1" />
      <stop
         id="stop6865"
         offset="1"
         style="stop-color:#0088c9;stop-opacity:1" />
    </linearGradient>
    <radialGradient
       inkscape:collect="always"
       xlink:href="#Light_O_to_O"
       id="radialGradient6891"
       cx="237.44878"
       cy="305.86292"
       fx="237.44878"
       fy="305.86292"
       r="149.04205"
       gradientTransform="matrix(1.4708902,0.01288161,-0.01007117,1.1499792,-108.73192,-48.931798)"
       gradientUnits="userSpaceOnUse" />
    <radialGradient
       inkscape:collect="always"
       xlink:href="#Light_B_to_B-7"
       id="radialGradient6899"
       cx="354.69638"
       cy="229.71977"
       fx="354.69638"
       fy="229.71977"
       r="60.259735"
       gradientTransform="matrix(1.0727712,0.02910846,-0.02700658,0.99530784,-19.607722,-9.2467852)"
       gradientUnits="userSpaceOnUse" />
    <radialGradient
       inkscape:collect="always"
       xlink:href="#linearGradient4180"
       id="radialGradient4186"
       cx="284.00128"
       cy="436.67305"
       fx="284.00128"
       fy="436.67305"
       r="182.57042"
       gradientTransform="matrix(1,0,0,0.42189475,0,252.44299)"
       gradientUnits="userSpaceOnUse" />
  </defs>
  <sodipodi:namedview
     id="base"
     pagecolor="#ffffff"
     bordercolor="#666666"
     borderopacity="1.0"
     inkscape:pageopacity="0.0"
     inkscape:pageshadow="2"
     inkscape:zoom="1.1951992"
     inkscape:cx="338.67179"
     inkscape:cy="735.41063"
     inkscape:document-units="px"
     inkscape:current-layer="layer1"
     showgrid="false"
     inkscape:window-width="1535"
     inkscape:window-height="876"
     inkscape:window-x="65"
     inkscape:window-y="24"
     inkscape:window-maximized="1">
    <inkscape:grid
       type="xygrid"
       id="grid4224" />
  </sodipodi:namedview>
  <metadata
     id="metadata7">
    <rdf:RDF>
      <cc:Work
         rdf:about="">
        <dc:format>image/svg+xml</dc:format>
        <dc:type
           rdf:resource="http://purl.org/dc/dcmitype/StillImage" />
        <dc:title />
      </cc:Work>
    </rdf:RDF>
  </metadata>
  <g
     inkscape:label="Layer 1"
     inkscape:groupmode="layer"
     id="layer1">
    <rect
       style="color:#000000;clip-rule:nonzero;display:inline;overflow:visible;visibility:visible;opacity:1;isolation:auto;mix-blend-mode:normal;color-interpolation:sRGB;color-interpolation-filters:linearRGB;solid-color:#000000;solid-opacity:1;fill:#000000;fill-opacity:1;fill-rule:nonzero;stroke:none;stroke-width:2.34214497;stroke-linecap:butt;stroke-linejoin:miter;stroke-miterlimit:4;stroke-dasharray:none;stroke-dashoffset:0;stroke-opacity:1;color-rendering:auto;image-rendering:auto;shape-rendering:auto;text-rendering:auto;enable-background:accumulate"
       id="rect4226"
       width="397.65784"
       height="397.65787"
       x="84.411079"
       y="115.44823"
       inkscape:export-xdpi="67.897568"
       inkscape:export-ydpi="67.897568" />
    <path
       sodipodi:type="star"
       style="color:#000000;clip-rule:nonzero;display:inline;overflow:visible;visibility:visible;opacity:1;isolation:auto;mix-blend-mode:normal;color-interpolation:sRGB;color-interpolation-filters:linearRGB;solid-color:#000000;solid-opacity:1;fill:url(#radialGradient6899);fill-opacity:1;fill-rule:nonzero;stroke:#ffffff;stroke-width:1;stroke-linecap:butt;stroke-linejoin:miter;stroke-miterlimit:4;stroke-dasharray:none;stroke-dashoffset:0;stroke-opacity:1;color-rendering:auto;image-rendering:auto;shape-rendering:auto;text-rendering:auto;enable-background:accumulate"
       id="path4140-3"
       sodipodi:sides="15"
       sodipodi:cx="354.7662"
       sodipodi:cy="229.12717"
       sodipodi:r1="57.517141"
       sodipodi:r2="44.453976"
       sodipodi:arg1="0.30313617"
       sodipodi:arg2="0.51257568"
       inkscape:flatsided="false"
       inkscape:rounded="0"
       inkscape:randomized="0"
       d="m 409.66085,246.29689 -16.15371,4.63155 4.42426,16.21171 -16.64096,-2.33917 -2.55214,16.60964 -14.25085,-8.90542 -9.08724,14.13561 -9.39664,-13.93186 -14.05108,9.21742 -2.91766,-16.54935 -16.58536,2.70544 4.06581,-16.30529 -16.25188,-4.27434 10.34626,-13.24191 -13.10831,-10.51504 14.83776,-7.88888 -7.69818,-14.93759 16.76366,-1.1718 -0.95698,-16.7773 15.79099,5.7479 5.9497,-15.71606 12.08789,11.67374 11.82762,-11.93737 6.29471,15.58108 15.66044,-6.09461 -0.5869,16.79432 16.78542,0.80197 -7.36702,15.10366 15.00805,7.55988 -12.87332,10.80144 z"
       inkscape:transform-center-x="0.69002433"
       inkscape:transform-center-y="-0.28249264"
       inkscape:export-xdpi="67.897568"
       inkscape:export-ydpi="67.897568" />
    <path
       sodipodi:type="star"
       style="color:#000000;clip-rule:nonzero;display:inline;overflow:visible;visibility:visible;opacity:1;isolation:auto;mix-blend-mode:normal;color-interpolation:sRGB;color-interpolation-filters:linearRGB;solid-color:#000000;solid-opacity:1;fill:url(#radialGradient6891);fill-opacity:1;fill-rule:nonzero;stroke:#ffffff;stroke-width:1;stroke-linecap:butt;stroke-linejoin:miter;stroke-miterlimit:4;stroke-dasharray:none;stroke-dashoffset:0;stroke-opacity:1;color-rendering:auto;image-rendering:auto;shape-rendering:auto;text-rendering:auto;enable-background:accumulate"
       id="path4140"
       sodipodi:sides="19"
       sodipodi:cx="237.52745"
       sodipodi:cy="306.80437"
       sodipodi:r1="140.82436"
       sodipodi:r2="107.85079"
       sodipodi:arg1="0.41973747"
       sodipodi:arg2="0.58508445"
       inkscape:flatsided="false"
       inkscape:rounded="0"
       inkscape:randomized="0"
       d="m 366.12768,364.19323 -38.68875,2.17389 13.08671,36.47305 -37.29835,-10.50612 0.53486,38.74609 -31.8661,-22.04762 -12.07496,36.82039 -22.98065,-31.19992 -23.37626,30.90462 -11.6049,-36.97123 -32.14438,21.63987 1.02842,-38.73613 -37.42917,10.03009 13.55031,-36.30337 -38.65792,-2.6666 24.6038,-29.93657 -35.697489,-15.07432 32.991089,-20.32569 -28.86868,-25.84851 37.80328,-8.5122 -18.91149,-33.82161 38.5189,4.22372 -6.90496,-38.1296 35.0604,16.50193 5.84984,-38.30568 27.80256,26.99191 17.97071,-34.33074 17.53188,34.55689 28.14418,-26.63552 5.36136,38.3771 35.26778,-16.05394 -7.39016,38.03855 38.56959,-3.73266 -19.34084,33.57793 37.69177,8.99312 -29.19563,25.47863 32.72947,20.74433 -35.88663,14.61832 z"
       inkscape:transform-center-x="1.6740748"
       inkscape:transform-center-y="-0.68538933"
       inkscape:export-xdpi="67.897568"
       inkscape:export-ydpi="67.897568" />
    <path
       style="color:#000000;clip-rule:nonzero;display:inline;overflow:visible;visibility:visible;opacity:1;isolation:auto;mix-blend-mode:normal;color-interpolation:sRGB;color-interpolation-filters:linearRGB;solid-color:#000000;solid-opacity:1;fill:#008eff;fill-opacity:1;fill-rule:nonzero;stroke:none;stroke-width:12;stroke-linecap:butt;stroke-linejoin:miter;stroke-miterlimit:4;stroke-dasharray:none;stroke-dashoffset:0;stroke-opacity:0.52525252;color-rendering:auto;image-rendering:auto;shape-rendering:auto;text-rendering:auto;enable-background:accumulate"
       id="path4142-5"
       sodipodi:type="arc"
       sodipodi:cx="283.49567"
       sodipodi:cy="528.48462"
       sodipodi:rx="177.48854"
       sodipodi:ry="163.63828"
       sodipodi:start="3.2418183"
       sodipodi:end="6.1838259"
       d="m 106.89783,512.11131 a 177.48854,163.63828 0 0 1 176.67471,-147.26495 177.48854,163.63828 0 0 1 176.53628,147.406"
       inkscape:export-xdpi="67.897568"
       inkscape:export-ydpi="67.897568"
       sodipodi:open="true" />
    <path
       style="fill:#008e78;fill-rule:evenodd;stroke:#fff0c1;stroke-width:1px;stroke-linecap:butt;stroke-linejoin:miter;stroke-opacity:1;fill-opacity:1"
       d="m 375.6696,403.93473 c -1.11558,0.83668 -2.23115,1.67336 -3.34673,2.51004 0,0.27889 0.19721,0.63947 0,0.83668 -0.39441,0.39442 -1.27894,-0.39441 -1.67336,0 -0.19721,0.19721 0.19721,0.63947 0,0.83668 -1.73112,1.73112 0.0677,-2.64538 -1.67336,0.83668 -0.12472,0.24945 0.19721,0.63948 0,0.83668 -0.19721,0.19721 -0.63947,-0.1972 -0.83668,0 -0.39442,0.39442 0.39441,1.27895 0,1.67336 -0.19721,0.19721 -0.63947,-0.1972 -0.83668,0 -0.39442,0.39442 0.39441,1.27895 0,1.67337 -0.19721,0.1972 -0.63947,-0.19721 -0.83668,0 -0.19721,0.1972 0,0.55778 0,0.83668 0,0.59304 0.10816,4.80376 0,5.02008 -0.17639,0.35278 -0.66029,0.48391 -0.83668,0.83668 -0.24945,0.4989 0.24945,1.17446 0,1.67336 -0.17639,0.35278 -0.66029,0.48391 -0.83668,0.83668 -0.26294,0.52588 0.26293,2.82085 0,3.34673 -0.17639,0.35277 -0.71196,0.4625 -0.83668,0.83668 -0.14994,0.4498 0,2.63834 0,3.34672 0,2.23115 0,4.46229 0,6.69344 0,1.39447 0,2.78894 0,4.18341 0,0.54979 -0.15735,2.03798 0,2.51004 0.1972,0.59162 0.63947,1.08174 0.83668,1.67336 0.17639,0.52916 -0.39442,1.27895 0,1.67336 0.19721,0.19721 0.63947,-0.19721 0.83668,0 0.19721,0.19721 -0.19721,0.63947 0,0.83668 0.19721,0.19721 0.58723,-0.12472 0.83668,0 0.35277,0.17639 0.4839,0.66029 0.83668,0.83668 0.24945,0.12473 0.63947,-0.19721 0.83668,0 0.19721,0.19721 -0.19721,0.63947 0,0.83668 0.19721,0.19721 0.63947,-0.19721 0.83668,0 0.19721,0.19721 -0.19721,0.63948 0,0.83668 0.19721,0.19721 0.63947,-0.1972 0.83668,0 0.19721,0.19721 -0.12472,0.58723 0,0.83668 0.17639,0.35278 0.55779,0.55779 0.83668,0.83668 0.2789,0.2789 0.48391,0.6603 0.83668,0.83668 0.21633,0.10817 4.42705,0 5.02009,0 0.20291,0 2.48313,0.0269 2.51004,0 0.19721,-0.1972 -0.19721,-0.63947 0,-0.83668 0.39441,-0.39441 1.27894,0.39442 1.67336,0 0.19721,-0.1972 -0.19721,-0.63947 0,-0.83668 0.19721,-0.1972 0.63947,0.19721 0.83668,0 0.19721,-0.1972 -0.19721,-0.63947 0,-0.83668 0.19721,-0.1972 0.58723,0.12473 0.83668,0 0.35278,-0.17638 0.48391,-0.66029 0.83668,-0.83668 0.24945,-0.12472 0.63947,0.19721 0.83668,0 1.11558,-1.11557 -1.39447,-0.83668 0.83668,-0.83668 2.23115,0 -0.27889,0.2789 0.83668,-0.83668 0.19721,-0.19721 0.63948,0.19721 0.83668,0 0.19721,-0.19721 -0.1972,-0.63947 0,-0.83668 0.19721,-0.19721 0.63948,0.19721 0.83668,0 0.19721,-0.19721 -0.1972,-0.63947 0,-0.83668 0.0269,-0.0269 2.30713,0 2.51005,0 0.27889,0 0.55778,0 0.83668,0 0.27889,0 0.63947,-0.19721 0.83668,0 0.39441,0.39441 -0.39442,1.27895 0,1.67336 0.1972,0.19721 0.55778,0 0.83668,0 0,0.27889 -0.19721,0.63947 0,0.83668 0.19721,0.19721 0.55778,0 0.83668,0 0.58194,0 3.88083,-0.15128 4.1834,0 0.35278,0.17639 0.55779,0.55779 0.83668,0.83668 0.2789,0.2789 0.66029,0.48391 0.83668,0.83668 0.11,0.22 0,2.90921 0,3.34673 0,0.27889 0,0.55778 0,0.83668 0,0.27889 -0.1972,0.63947 0,0.83668 0.0337,0.0337 3.03947,0 3.34673,0 0.27889,0 0.63947,0.1972 0.83668,0 0.1972,-0.19721 -0.24945,-0.71196 0,-0.83668 0.74835,-0.37418 1.76169,0.37417 2.51004,0 0.35277,-0.17639 0.4839,-0.6603 0.83668,-0.83668 0.30257,-0.15129 3.60146,0 4.1834,0 0.44697,0 3.94394,-0.11973 4.1834,0 0.35278,0.17638 0.48391,0.66029 0.83668,0.83668 0.21633,0.10816 4.42705,0 5.02009,0 0.58194,0 3.88083,0.15128 4.1834,0 0.35278,-0.17639 0.48391,-0.6603 0.83668,-0.83668 0.4989,-0.24945 1.27895,0.39441 1.67336,0 0.19721,-0.19721 -0.1972,-0.63948 0,-0.83669 0.41834,-0.41834 2.09171,0.41835 2.51005,0 0.1972,-0.1972 -0.19721,-0.63947 0,-0.83668 0.39441,-0.39441 1.27894,0.39442 1.67336,0 0.1972,-0.1972 0,-0.55778 0,-0.83668 0.27889,0 0.63947,0.19721 0.83668,0 0.0837,-0.0837 0.0837,-2.42637 0,-2.51004 -0.19721,-0.19721 -0.63948,0.19721 -0.83668,0 -0.39442,-0.39441 0.39441,-1.27894 0,-1.67336 -0.19721,-0.19721 -0.58723,0.12473 -0.83668,0 -0.35278,-0.17639 -0.48391,-0.66029 -0.83668,-0.83668 -0.24945,-0.12473 -0.63948,0.19721 -0.83669,0 -0.1972,-0.19721 0.15471,-0.60463 0,-0.83668 -0.43756,-0.65635 -1.23579,-1.01702 -1.67336,-1.67336 -0.1547,-0.23206 0.19721,-0.63948 0,-0.83668 -0.1972,-0.19721 -0.63947,0.1972 -0.83668,0 -0.1972,-0.19721 0.12473,-0.58723 0,-0.83668 -0.17638,-0.35278 -0.66029,-0.48391 -0.83668,-0.83668 -0.12472,-0.24945 0.19721,-0.63948 0,-0.83668 -0.19721,-0.19721 -0.63947,0.1972 -0.83668,0 0,-2.23115 0.2789,0.27889 -0.83668,-0.83669 -0.19721,-0.1972 0.12473,-0.58723 0,-0.83668 -0.17639,-0.35277 -0.66029,-0.4839 -0.83668,-0.83668 -0.12472,-0.24945 0.19721,-0.63947 0,-0.83668 -1.73112,-1.73112 0.0677,2.64539 -1.67336,-0.83668 -0.12473,-0.24945 0.19721,-0.63947 0,-0.83668 -0.19721,-0.19721 -0.63947,0.19721 -0.83668,0 -0.19721,-0.19721 0.19721,-0.63947 0,-0.83668 -0.19721,-0.19721 -0.63947,0.19721 -0.83668,0 -0.19721,-0.19721 0.19721,-0.63947 0,-0.83668 -0.19721,-0.19721 -0.63948,0.19721 -0.83668,0 -0.19721,-0.19721 0.12472,-0.58723 0,-0.83668 -0.17639,-0.35278 -0.6603,-0.48391 -0.83668,-0.83668 -0.12473,-0.24945 0.1972,-0.63947 0,-0.83668 -0.19721,-0.19721 -0.63948,0.19721 -0.83668,0 -0.19721,-0.19721 0.1972,-0.63947 0,-0.83668 -0.39442,-0.39442 -1.27895,0.39441 -1.67337,0 -0.39441,-0.39442 0.39442,-1.27895 0,-1.67336 -0.1972,-0.19721 -0.58723,0.12472 -0.83668,0 -1.84994,-0.92498 -0.25964,-0.51928 -0.83668,-1.67336 -0.17638,-0.35278 -0.66029,-0.48391 -0.83668,-0.83668 -0.12472,-0.24945 0.19721,-0.63948 0,-0.83669 -0.1972,-0.1972 -0.63947,0.19721 -0.83668,0 -1.73112,-1.73112 2.64539,0.0677 -0.83668,-1.67336 -0.24945,-0.12472 -0.63947,0.19721 -0.83668,0 -0.19721,-0.1972 0.12473,-0.58723 0,-0.83668 -0.17639,-0.35277 -0.55779,-0.55778 -0.83668,-0.83668 -0.27889,-0.27889 -0.4839,-0.66029 -0.83668,-0.83668 -0.24945,-0.12472 -0.63947,0.19721 -0.83668,0 -0.19721,-0.19721 0.12472,-0.58723 0,-0.83668 -0.17639,-0.35277 -0.66029,-0.4839 -0.83668,-0.83668 -0.12473,-0.24945 0.19721,-0.63947 0,-0.83668 -0.19721,-0.19721 -0.63947,0.19721 -0.83668,0 -0.19721,-0.19721 0.19721,-0.63947 0,-0.83668 -1.73112,-1.73112 0.0677,2.64538 -1.67336,-0.83668 -0.12473,-0.24945 0.1972,-0.63947 0,-0.83668 -0.19721,-0.19721 -0.58723,0.12472 -0.83668,0 -0.35278,-0.17639 -0.48391,-0.6603 -0.83668,-0.83668 -0.24945,-0.12473 -0.63948,0.1972 -0.83668,0 -0.19721,-0.19721 0.1972,-0.63948 0,-0.83668 -0.19721,-0.19721 -0.63948,0.1972 -0.83669,0 -0.1972,-0.19721 0.12473,-0.58723 0,-0.83668 -0.17638,-0.35278 -0.66029,-0.48391 -0.83668,-0.83668 -0.12472,-0.24945 0.19721,-0.63948 0,-0.83669 -0.1972,-0.1972 -0.58723,0.12473 -0.83668,0 -3.48206,-1.74103 0.89444,0.0578 -0.83668,-1.67336 -0.1972,-0.1972 -0.63947,0.19721 -0.83668,0 -0.19721,-0.1972 0.19721,-0.63947 0,-0.83668 -0.39441,-0.39441 -1.27894,0.39442 -1.67336,0 -0.19721,-0.1972 0.19721,-0.63947 0,-0.83668 -0.19721,-0.19721 -0.58723,0.12473 -0.83668,0 -3.59298,-1.79649 1.91962,0.12313 -1.67336,-1.67336 -0.24945,-0.12472 -0.58723,0.12473 -0.83668,0 -1.00402,-0.50201 -1.50603,-2.00803 -2.51004,-2.51004 -0.4989,-0.24945 -1.27895,0.39441 -1.67336,0 -1.11558,-1.11557 1.39446,-0.83668 -0.83669,-0.83668 -2.20063,0 0.33015,-0.67161 -1.67336,-1.67336 -0.24945,-0.12473 -0.58723,0.12472 -0.83668,0 -0.35277,-0.17639 -0.4839,-0.6603 -0.83668,-0.83668 -0.4989,-0.24945 -1.27894,0.39441 -1.67336,0 -0.19721,-0.19721 0.19721,-0.63948 0,-0.83668 -0.0269,-0.0269 -2.30712,0 -2.51004,0 -0.27889,0 -0.55779,0 -0.83668,0 -0.27889,0 -0.63947,-0.19721 -0.83668,0 -0.19721,0.1972 0.19721,0.63947 0,0.83668 -0.19721,0.1972 -0.55779,0 -0.83668,0 -0.83668,1.11557 -1.67336,2.23115 -2.51004,3.34672 z"
       id="path4178"
       inkscape:connector-curvature="0"
       inkscape:export-xdpi="67.897568"
       inkscape:export-ydpi="67.897568" />
    <path
       style="fill:#008e78;fill-opacity:1;fill-rule:evenodd;stroke:#fff0c1;stroke-width:1px;stroke-linecap:butt;stroke-linejoin:miter;stroke-opacity:1"
       d="m 263.50781,412.23242 c -0.0664,0.004 -0.12681,0.0249 -0.17969,0.0703 -0.21147,0.18182 0.14893,0.65219 -0.0625,0.83399 -0.42297,0.36361 -1.24693,-0.48859 -1.66992,-0.125 -0.21149,0.18181 0.14893,0.65218 -0.0625,0.83398 -0.44864,0.38567 -2.05331,-0.57515 -2.50195,-0.18945 -0.21149,0.18181 0.14893,0.65218 -0.0625,0.83398 -0.21149,0.1818 -0.62445,-0.24436 -0.83594,-0.0625 -0.21149,0.1818 0.14893,0.65217 -0.0625,0.83399 -0.42299,0.3636 -1.15171,-0.33618 -1.66797,-0.125 -0.36505,0.14934 -0.53337,0.62214 -0.89843,0.77148 -0.25812,0.10559 -0.57586,-0.16817 -0.83399,-0.0625 -0.36506,0.14934 -0.54397,0.59264 -0.89648,0.76953 -1.11477,0.5594 -2.30849,0.94571 -3.46289,1.41797 l 0,-0.002 -3.40039,0.58203 c -0.57719,0.23612 -1.12569,0.55687 -1.73047,0.70899 -0.27046,0.068 -0.56548,-0.13061 -0.83594,-0.0625 -0.60479,0.15212 -1.12569,0.5549 -1.73047,0.70703 -0.27047,0.068 -0.57585,-0.16816 -0.83398,-0.0625 -0.36507,0.14935 -0.51594,0.67527 -0.89844,0.77148 -0.54095,0.13606 -1.12705,-0.26105 -1.66797,-0.125 -0.38251,0.0962 -0.51398,0.67529 -0.89648,0.77149 -0.76977,0.19364 -1.73413,-0.3831 -2.50391,-0.18946 -0.60478,0.15213 -1.12568,0.55685 -1.73047,0.70899 -0.54094,0.13606 -1.15366,-0.33814 -1.66992,-0.12696 -0.36504,0.14935 -0.51398,0.67528 -0.89649,0.77149 -0.54094,0.13606 -1.15366,-0.33618 -1.66992,-0.125 -0.25813,0.10561 0.14893,0.65217 -0.0625,0.83398 -2.22483,-0.1679 0.29988,-0.25697 -0.89648,0.77149 -1.85649,1.59594 0.26575,-2.63412 -1.73242,0.70703 -0.14315,0.23936 0.0806,0.59462 -0.0625,0.83398 -0.40487,0.677 -1.30921,0.92141 -1.79492,1.54297 -1.86985,0.28142 -0.57078,1.6845 -1.02344,2.44141 -0.20244,0.3385 -0.59739,0.51437 -0.89649,0.77148 -0.34106,0.81332 -0.63519,1.64757 -1.02343,2.43945 -0.0549,0.11184 -1.90908,3.17218 -1.91993,3.21094 -0.22305,0.79749 -0.42918,5.68384 -0.5039,6.67383 -0.042,0.55622 0.0487,1.14051 -0.12696,1.66992 -0.19635,0.5919 -0.791,1.0049 -0.95898,1.60547 -0.22536,0.80576 0.0739,1.70783 -0.18945,2.50195 -0.12423,0.37435 -0.74396,0.40776 -0.89649,0.77149 -0.18861,0.44978 -0.31548,4.16566 -0.3789,5.00586 -0.0215,0.27808 -0.0415,0.55588 -0.0625,0.83398 -0.0215,0.27808 0.14893,0.65217 -0.0625,0.83399 -0.21149,0.1818 -0.57586,-0.16817 -0.83399,-0.0625 -0.36505,0.14935 -0.51593,0.67526 -0.89844,0.77148 -0.54093,0.13606 -1.15171,-0.33619 -1.66796,-0.125 -1.09515,0.44801 -1.79413,1.54116 -2.69141,2.3125 l -1.79492,1.54297 c -0.29909,0.25711 -0.65364,0.4607 -0.89649,0.77148 -0.38399,0.49139 -0.48802,1.19894 -0.96093,1.60547 -0.4729,0.40655 -1.18898,0.40311 -1.73243,0.70899 -0.7977,0.44902 -1.92401,2.00051 -2.6914,2.31445 -0.25812,0.1056 -0.6225,-0.24438 -0.83399,-0.0625 -0.2115,0.18179 0.0806,0.59463 -0.0625,0.83399 -0.20243,0.3385 -0.59935,0.51437 -0.89843,0.77148 -0.29909,0.25711 -0.53143,0.62215 -0.89649,0.77148 -0.25813,0.1056 -0.62249,-0.24632 -0.83398,-0.0644 -0.42298,0.36361 0.29603,1.30629 -0.12696,1.66992 -0.21148,0.1818 -0.62248,-0.24438 -0.83398,-0.0625 -0.42298,0.36362 0.298,1.30437 -0.125,1.66797 -0.21149,0.18181 -0.62444,-0.24437 -0.83594,-0.0625 -0.21149,0.18181 0.0806,0.59463 -0.0625,0.83399 -0.20245,0.33851 -0.69404,0.433 -0.89648,0.77148 -0.14314,0.23936 0.0806,0.59462 -0.0625,0.83398 -0.20244,0.3385 -0.69601,0.43299 -0.89844,0.77149 -0.14315,0.23936 0.0806,0.59462 -0.0625,0.83398 -0.20244,0.3385 -0.69406,0.43299 -0.89648,0.77149 -0.28629,0.47871 0.29603,1.30435 -0.12696,1.66797 -0.2115,0.18181 -0.6225,-0.24437 -0.83398,-0.0625 -0.21149,0.18179 0.0806,0.59462 -0.0625,0.83398 -0.20244,0.33849 -0.696,0.43298 -0.89844,0.77148 -0.14314,0.23936 0.14893,0.65219 -0.0625,0.83399 -0.21148,0.1818 -0.62249,-0.24437 -0.83398,-0.0625 -0.59855,0.51456 0.47162,1.15341 -0.12696,1.66797 -0.21148,0.18181 -0.62248,-0.24438 -0.83398,-0.0625 -0.21148,0.1818 0.0806,0.59462 -0.0625,0.83398 -0.20242,0.3385 -0.69406,0.43298 -0.89649,0.77149 -0.14315,0.23936 0.14892,0.65413 -0.0625,0.83593 -0.21149,0.18182 -0.62443,-0.24632 -0.83593,-0.0645 -0.21148,0.18181 0.14892,0.65412 -0.0625,0.83594 -0.21148,0.1818 -0.62249,-0.24633 -0.83399,-0.0645 -0.42297,0.36363 0.298,1.30631 -0.125,1.66992 -0.2115,0.18181 -0.62445,-0.24634 -0.83594,-0.0645 -0.42296,0.36361 0.298,1.30633 -0.125,1.66993 -0.21148,0.18182 -0.62249,-0.24436 -0.83398,-0.0625 -0.21591,0.18561 -0.0361,3.15031 -0.25195,3.33593 -0.21149,0.1818 -0.6225,-0.24438 -0.83399,-0.0625 -0.2115,0.18181 -0.0435,0.55588 -0.0644,0.83399 -0.0215,0.27807 -0.0416,0.55586 -0.0625,0.83398 -0.14693,1.94671 -0.29449,3.89509 -0.44141,5.8418 -0.0283,0.37574 -0.0414,2.25762 -0.1875,2.50195 -0.20245,0.33851 -0.69599,0.43299 -0.89843,0.77149 -0.14315,0.23936 0.14892,0.65218 -0.0625,0.83398 -0.21149,0.18181 -0.6225,-0.24437 -0.83399,-0.0625 -0.0289,0.0248 -0.1742,2.2996 -0.18945,2.50195 -0.0283,0.37573 -0.0414,2.25958 -0.1875,2.50391 -0.20245,0.3385 -0.69601,0.43298 -0.89844,0.77149 0.78659,0.0594 0.81552,1.48987 1.54297,1.79492 0.51439,0.21572 1.15358,-0.0907 1.66797,0.125 0.36373,0.15253 0.4607,0.65557 0.77148,0.89843 0.49138,0.384 1.03038,1.16153 1.60547,1.40271 17.61922,-0.0927 73.94123,0.0553 84.85395,-0.23186 3.41319,0.57408 3.25152,-0.27432 3.25152,-0.27432 0.28628,-0.47872 -0.29604,-1.30631 0.12695,-1.66992 0.21148,-0.18181 0.6225,0.24632 0.83399,0.0645 0.2115,-0.1818 -0.0806,-0.59658 0.0625,-0.83594 0.20244,-0.33848 0.69601,-0.43297 0.89844,-0.77148 0.14315,-0.23935 0.0416,-0.55588 0.0625,-0.83399 0.0215,-0.27808 0.0416,-0.55587 0.0625,-0.83398 0.10497,-1.39051 0.20947,-2.78136 0.31445,-4.17188 0.0215,-0.27808 0.0434,-0.55587 0.0644,-0.83398 0.0215,-0.27808 -0.0806,-0.59462 0.0625,-0.83398 0.20244,-0.33851 0.69405,-0.43299 0.89649,-0.77149 0.14314,-0.23936 0.0416,-0.55588 0.0625,-0.83398 0.0215,-0.27809 0.0435,-0.55589 0.0644,-0.83399 0.10498,-1.39052 0.20947,-2.78135 0.31445,-4.17187 0.14693,-1.94671 0.29255,-3.89313 0.43946,-5.83985 0.0215,-0.27808 -0.14697,-0.65217 0.0645,-0.83398 0.21149,-0.18181 0.62249,0.24437 0.83398,0.0625 0.42297,-0.36361 -0.1613,-1.19119 0.125,-1.66992 0.20244,-0.33849 0.696,-0.43299 0.89844,-0.77149 0.14314,-0.23935 -0.14893,-0.65218 0.0625,-0.83398 0.21149,-0.18181 0.6225,0.24631 0.83399,0.0644 0.21149,-0.18181 -0.14894,-0.65414 0.0625,-0.83594 0.2115,-0.18182 0.62248,0.24632 0.83398,0.0645 0.4729,-0.40653 0.57695,-1.11605 0.96094,-1.60742 0.24286,-0.31078 0.59739,-0.51242 0.89648,-0.76954 0.29909,-0.25711 0.55474,-0.57801 0.89844,-0.77148 0.54345,-0.30588 1.18703,-0.40308 1.73047,-0.70898 0.68742,-0.38692 1.1075,-1.15604 1.79492,-1.54297 0.54344,-0.30589 1.18897,-0.4031 1.73242,-0.70899 1.01109,-0.56912 1.68032,-1.74338 2.69141,-2.3125 0.54346,-0.3059 1.25951,-0.30244 1.73242,-0.70898 0.21149,-0.18181 -0.14893,-0.6522 0.0625,-0.83399 0.42298,-0.36363 1.24499,0.48858 1.66797,0.125 0.21149,-0.18182 -0.14893,-0.65219 0.0625,-0.83398 0.21149,-0.18181 0.55785,0.0415 0.83594,0.0625 l 5.83984,0.44141 5.83984,0.4414 c 0.8343,0.0629 1.73039,-0.13605 2.50196,0.1875 0.36374,0.15252 0.43299,0.696 0.77148,0.89844 0.47871,0.28629 1.30632,-0.298 1.66992,0.125 1.59595,1.85648 -2.63413,-0.26575 0.70703,1.73242 0.23935,0.14314 0.59464,-0.0806 0.83399,0.0625 0.3385,0.20245 0.43298,0.69406 0.77148,0.89649 0.23936,0.14314 0.59658,-0.0786 0.83594,0.0645 0.3385,0.20243 0.43102,0.69404 0.76953,0.89648 0.47871,0.28629 1.19121,-0.1613 1.66992,0.125 0.67699,0.40488 0.86596,1.39006 1.54297,1.79492 0.47871,0.28628 1.30435,-0.29603 1.66797,0.12696 0.1818,0.2115 -0.24438,0.62248 -0.0625,0.83398 0.36363,0.42298 1.18926,-0.1613 1.66797,0.125 0.33851,0.20244 0.43298,0.696 0.77148,0.89844 0.29032,0.17364 3.59157,0.27066 4.17188,0.31445 0.4283,0.0324 3.12105,0.37402 3.33789,0.25196 5.08078,-2.85985 0.648,-0.35465 1.85742,-2.37696 0.40486,-0.677 1.38809,-0.86597 1.79297,-1.54297 0.28628,-0.47871 -0.29603,-1.30435 0.12695,-1.66796 0.21149,-0.1818 0.62249,0.24438 0.83399,0.0625 0.0407,-0.035 0.28477,-3.7785 0.31445,-4.17188 0.0297,-0.39337 0.34939,-4.1312 0.31445,-4.17187 -0.18181,-0.2115 -0.65216,0.14893 -0.83398,-0.0625 -0.18181,-0.21149 0.24438,-0.6225 0.0625,-0.83399 -0.18181,-0.21149 -0.65216,0.14893 -0.83399,-0.0625 -1.59593,-1.85649 2.63412,0.26575 -0.70703,-1.73242 -0.23936,-0.14315 -0.65413,0.14892 -0.83593,-0.0625 -0.18181,-0.21149 0.24632,-0.6225 0.0644,-0.83398 -0.38567,-0.44865 -2.11824,0.25915 -2.50391,-0.18946 -0.18181,-0.21149 0.24436,-0.62249 0.0625,-0.83398 -0.18181,-0.21149 -0.55589,-0.0416 -0.83398,-0.0625 -0.27809,-0.0215 -0.55589,-0.0416 -0.83399,-0.0625 -0.27808,-0.0215 -0.55587,-0.0435 -0.83398,-0.0645 -0.27809,-0.0215 -0.65217,0.14892 -0.83398,-0.0625 -0.1818,-0.21149 0.24437,-0.62249 0.0625,-0.83398 -0.36361,-0.42299 -1.30434,0.29604 -1.66797,-0.12695 0.1679,-2.22483 0.25698,0.29987 -0.77149,-0.89649 -0.1856,-0.21591 0.43756,-3.12197 0.25196,-3.33789 -0.1818,-0.21148 -0.65413,0.14893 -0.83594,-0.0625 -0.18181,-0.21149 0.24633,-0.62248 0.0644,-0.83398 -0.18181,-0.21148 -0.65412,0.14893 -0.83594,-0.0625 -0.1818,-0.21148 0.17013,-0.57586 0.0645,-0.83399 -0.40605,-0.99255 -1.65317,-1.29182 -2.37696,-1.85742 -0.31078,-0.24286 -0.43298,-0.696 -0.77148,-0.89844 -2.22482,-0.16789 0.25697,0.29988 -0.77148,-0.89648 -0.18181,-0.21149 -0.65219,0.14892 -0.83399,-0.0625 -0.18182,-0.2115 0.24436,-0.62444 0.0625,-0.83594 -0.18181,-0.21149 -0.65217,0.14892 -0.83398,-0.0625 -0.1818,-0.21149 0.24437,-0.62249 0.0625,-0.83398 -0.18181,-0.21149 -0.72839,0.19556 -0.83399,-0.0625 -0.15053,-0.36797 0.26168,-3.47273 0.31446,-4.17188 0.0231,-0.30639 0.28302,-3.30178 0.25195,-3.33789 -0.18182,-0.21148 -0.65219,0.14893 -0.83399,-0.0625 -0.40653,-0.47291 -0.30245,-1.25757 -0.70898,-1.73047 -0.18181,-0.21148 -0.65217,0.14697 -0.83398,-0.0645 -0.18181,-0.21148 0.16816,-0.57585 0.0625,-0.83398 -1.14745,-2.80491 -0.3955,1.00996 -1.54297,-1.79493 -0.10559,-0.25813 0.16817,-0.57585 0.0625,-0.83398 -0.094,-0.22988 -2.09934,-2.56394 -2.3125,-2.69141 -0.23935,-0.14315 -0.65414,0.14892 -0.83594,-0.0625 -0.36361,-0.42298 0.33813,-1.15367 0.12695,-1.66992 -0.14934,-0.36506 -0.62215,-0.53144 -0.77148,-0.89648 -0.10779,-0.2635 0.16115,-2.12622 0.18945,-2.50196 0.12595,-1.66862 0.25102,-3.33725 0.37695,-5.00586 0.0215,-0.27808 0.0415,-0.55784 0.0625,-0.83593 0.0215,-0.27808 0.24632,-0.62249 0.0645,-0.83399 -0.21106,-0.24551 -2.90237,0.009 -3.33789,-0.25195 -0.3385,-0.20245 -0.43299,-0.69405 -0.77149,-0.89648 -0.31831,-0.19036 -2.34622,-0.006 -2.5039,-0.18946 -0.1818,-0.2115 0.24631,-0.62247 0.0645,-0.83398 -0.21106,-0.24551 -2.90236,0.009 -3.33789,-0.25196 -0.33849,-0.20245 -0.43299,-0.69404 -0.77149,-0.89648 -0.64226,-0.38409 -1.85969,0.19461 -2.50195,-0.18945 -0.3385,-0.20245 -0.43297,-0.69405 -0.77148,-0.89649 -0.50459,-0.30176 -2.8333,0.0498 -3.33789,-0.25195 -0.3385,-0.20243 -0.43299,-0.69602 -0.77149,-0.89844 -0.47871,-0.28629 -1.18926,0.1613 -1.66797,-0.125 -0.3385,-0.20245 -0.43298,-0.69601 -0.77148,-0.89844 -0.47871,-0.28628 -1.19121,0.16131 -1.66992,-0.125 -0.3385,-0.20244 -0.43102,-0.696 -0.76953,-0.89843 -0.23936,-0.14314 -0.55783,-0.0415 -0.83594,-0.0625 -1.39051,-0.10497 -2.77941,-0.20948 -4.16992,-0.31446 -0.27808,-0.0215 -0.55783,-0.0416 -0.83594,-0.0625 -0.27807,-0.0215 -0.59463,0.0806 -0.83399,-0.0625 -0.33851,-0.20244 -0.43298,-0.69599 -0.77148,-0.89843 -0.50648,-0.30289 -3.6654,-0.0115 -4.17188,-0.31446 -0.33849,-0.20244 -0.43103,-0.69404 -0.76953,-0.89648 -0.50459,-0.30175 -2.8333,0.0498 -3.33789,-0.25195 -0.3385,-0.20243 -0.43297,-0.696 -0.77148,-0.89844 -0.20757,-0.12414 -4.41449,-0.33233 -5.00586,-0.37696 -1.95661,-0.14762 0.37862,0.22564 -1.60547,-0.96093 -0.2111,-0.12625 -2.90161,-0.219 -3.33789,-0.25196 -0.20855,-0.0161 -0.45508,-0.14573 -0.6543,-0.13281 z m -82.11328,96.25196 c -0.27804,-0.021 -0.041,0.55591 -0.0625,0.83398 -0.0209,0.2781 -0.34059,0.81248 -0.0625,0.83398 0.55622,0.042 -0.16129,-1.18926 0.125,-1.66796 z"
       id="path4176"
       inkscape:connector-curvature="0"
       sodipodi:nodetypes="ccccccccccscscccccccsccsccsccssccscccccccscccccssssccscccccscccccccccscccccccccccccccccccccccscccccccsccccccccccccccccccccsccccscccsssscccccccccscscssscccccccccscccccsccccccccccccccccscsccccccccccccccccscccccscccccsccsscscccccccsccsccccccc"
       inkscape:export-xdpi="67.897568"
       inkscape:export-ydpi="67.897568" />
    <path
       style="color:#000000;clip-rule:nonzero;display:inline;overflow:visible;visibility:visible;opacity:1;isolation:auto;mix-blend-mode:normal;color-interpolation:sRGB;color-interpolation-filters:linearRGB;solid-color:#000000;solid-opacity:1;fill:url(#radialGradient4186);fill-opacity:1;fill-rule:nonzero;stroke:#0000c9;stroke-width:12;stroke-linecap:butt;stroke-linejoin:miter;stroke-miterlimit:4;stroke-dasharray:none;stroke-dashoffset:0;stroke-opacity:0.52525252;color-rendering:auto;image-rendering:auto;shape-rendering:auto;text-rendering:auto;enable-background:accumulate"
       id="path4142"
       sodipodi:type="arc"
       sodipodi:cx="283.99332"
       sodipodi:cy="529.28583"
       sodipodi:rx="177.48854"
       sodipodi:ry="163.63828"
       sodipodi:start="3.2418183"
       sodipodi:end="6.1838259"
       d="M 107.39548,512.91252 A 177.48854,163.63828 0 0 1 284.07019,365.64757 177.48854,163.63828 0 0 1 460.60647,513.05356"
       inkscape:export-xdpi="67.897568"
       inkscape:export-ydpi="67.897568"
       sodipodi:open="true"
       sodipodi:insensitive="true" />
    <path
       style="fill:none;fill-rule:evenodd;stroke:#000000;stroke-width:1px;stroke-linecap:butt;stroke-linejoin:miter;stroke-opacity:1"
       d="m 184.58623,512.58059 93.92008,0"
       id="path4189"
       inkscape:connector-curvature="0"
       sodipodi:nodetypes="cc"
       inkscape:export-xdpi="67.897568"
       inkscape:export-ydpi="67.897568" />
  </g>
</svg>
