<?xml version="1.0" encoding="UTF-8" standalone="no"?>
<!-- Created with Inkscape (http://www.inkscape.org/) -->

<svg
   xmlns:dc="http://purl.org/dc/elements/1.1/"
   xmlns:cc="http://creativecommons.org/ns#"
   xmlns:rdf="http://www.w3.org/1999/02/22-rdf-syntax-ns#"
   xmlns:svg="http://www.w3.org/2000/svg"
   xmlns="http://www.w3.org/2000/svg"
   xmlns:xlink="http://www.w3.org/1999/xlink"
   xmlns:sodipodi="http://sodipodi.sourceforge.net/DTD/sodipodi-0.dtd"
   xmlns:inkscape="http://www.inkscape.org/namespaces/inkscape"
   width="300"
   height="300"
   viewBox="0 0 300.00001 300.00001"
   id="svg2"
   version="1.1"
   inkscape:version="0.91 r13725"
   sodipodi:docname="logo.svg">
  <defs
     id="defs4">
    <linearGradient
       inkscape:collect="always"
       id="linearGradient4180">
      <stop
         style="stop-color:#008e78;stop-opacity:1;"
         offset="0"
         id="stop4182" />
      <stop
         style="stop-color:#008e78;stop-opacity:0;"
         offset="1"
         id="stop4184" />
    </linearGradient>
    <linearGradient
       id="Light_O_to_O"
       inkscape:collect="always">
      <stop
         style="stop-color:#ffd680;stop-opacity:1"
         offset="0"
         id="stop6909" />
      <stop
         style="stop-color:#ff6600;stop-opacity:1"
         offset="1"
         id="stop6911" />
    </linearGradient>
    <linearGradient
       inkscape:collect="always"
       id="Light_B_to_B-7">
      <stop
         id="stop6867"
         offset="0"
         style="stop-color:#80ffe6;stop-opacity:1" />
      <stop
         id="stop6865"
         offset="1"
         style="stop-color:#0088c9;stop-opacity:1" />
    </linearGradient>
    <radialGradient
       inkscape:collect="always"
       xlink:href="#Light_O_to_O"
       id="radialGradient6891"
       cx="237.44878"
       cy="305.86292"
       fx="237.44878"
       fy="305.86292"
       r="149.04205"
       gradientTransform="matrix(1.1080149,0.00970366,-0.00758656,0.86627402,-145.49373,628.53531)"
       gradientUnits="userSpaceOnUse" />
    <radialGradient
       inkscape:collect="always"
       xlink:href="#Light_B_to_B-7"
       id="radialGradient6899"
       cx="354.69638"
       cy="229.71977"
       fx="354.69638"
       fy="229.71977"
       r="60.259735"
       gradientTransform="matrix(0.80811359,0.02192727,-0.02034394,0.7497608,-78.356882,658.42985)"
       gradientUnits="userSpaceOnUse" />
    <radialGradient
       inkscape:collect="always"
       xlink:href="#linearGradient4180"
       id="radialGradient4186"
       cx="284.00128"
       cy="436.67307"
       fx="284.00128"
       fy="436.67307"
       r="182.57042"
       gradientTransform="matrix(0.75329538,0,0,0.31781137,-63.586476,855.55954)"
       gradientUnits="userSpaceOnUse" />
  </defs>
  <sodipodi:namedview
     id="base"
     pagecolor="#ffffff"
     bordercolor="#666666"
     borderopacity="1.0"
     inkscape:pageopacity="0.0"
     inkscape:pageshadow="2"
     inkscape:zoom="1.1951992"
     inkscape:cx="222.79153"
     inkscape:cy="116.45223"
     inkscape:document-units="px"
     inkscape:current-layer="layer1"
     showgrid="false"
     inkscape:window-width="1535"
     inkscape:window-height="876"
     inkscape:window-x="65"
     inkscape:window-y="24"
     inkscape:window-maximized="1"
     units="px">
    <inkscape:grid
       type="xygrid"
       id="grid4224" />
  </sodipodi:namedview>
  <metadata
     id="metadata7">
    <rdf:RDF>
      <cc:Work
         rdf:about="">
        <dc:format>image/svg+xml</dc:format>
        <dc:type
           rdf:resource="http://purl.org/dc/dcmitype/StillImage" />
        <dc:title></dc:title>
      </cc:Work>
    </rdf:RDF>
  </metadata>
  <g
     inkscape:label="Layer 1"
     inkscape:groupmode="layer"
     id="layer1"
     transform="translate(0,-752.36208)">
    <rect
       style="color:#000000;clip-rule:nonzero;display:inline;overflow:visible;visibility:visible;opacity:1;isolation:auto;mix-blend-mode:normal;color-interpolation:sRGB;color-interpolation-filters:linearRGB;solid-color:#000000;solid-opacity:1;fill:#000000;fill-opacity:1;fill-rule:nonzero;stroke:none;stroke-width:2.34214497;stroke-linecap:butt;stroke-linejoin:miter;stroke-miterlimit:4;stroke-dasharray:none;stroke-dashoffset:0;stroke-opacity:1;color-rendering:auto;image-rendering:auto;shape-rendering:auto;text-rendering:auto;enable-background:accumulate"
       id="rect4226"
       width="300"
       height="300.00003"
       x="0"
       y="751.91577"
       inkscape:export-xdpi="67.897568"
       inkscape:export-ydpi="67.897568" />
    <path
       sodipodi:type="star"
       style="color:#000000;clip-rule:nonzero;display:inline;overflow:visible;visibility:visible;opacity:1;isolation:auto;mix-blend-mode:normal;color-interpolation:sRGB;color-interpolation-filters:linearRGB;solid-color:#000000;solid-opacity:1;fill:url(#radialGradient6899);fill-opacity:1;fill-rule:nonzero;stroke:#ffffff;stroke-width:0.75329542;stroke-linecap:butt;stroke-linejoin:miter;stroke-miterlimit:4;stroke-dasharray:none;stroke-dashoffset:0;stroke-opacity:1;color-rendering:auto;image-rendering:auto;shape-rendering:auto;text-rendering:auto;enable-background:accumulate"
       id="path4140-3"
       sodipodi:sides="15"
       sodipodi:cx="203.65726"
       sodipodi:cy="837.99585"
       sodipodi:r1="43.327396"
       sodipodi:r2="33.486973"
       sodipodi:arg1="0.30313617"
       sodipodi:arg2="0.51257568"
       inkscape:flatsided="false"
       inkscape:rounded="0"
       inkscape:randomized="0"
       d="m 245.00914,850.92972 -12.16851,3.48893 3.33277,12.2122 -12.53556,-1.76208 -1.92251,12.51197 -10.73511,-6.70842 -6.84537,10.64829 -7.07845,-10.4948 -10.58461,6.94344 -2.19786,-12.46655 -12.49368,2.038 3.06276,-12.28271 -12.24247,-3.21983 7.7938,-9.97508 -9.87443,-7.92093 11.17721,-5.94266 -5.79901,-11.25242 12.628,-0.88271 -0.72089,-12.63826 11.89528,4.32987 4.48188,-11.83884 9.10575,8.79378 8.9097,-8.99237 4.74177,11.73716 11.79693,-4.59104 -0.44211,12.65108 12.64439,0.60412 -5.54955,11.37752 11.3055,5.69482 -9.69741,8.13668 z"
       inkscape:transform-center-x="0.51980827"
       inkscape:transform-center-y="-0.21276766"
       inkscape:export-xdpi="67.897568"
       inkscape:export-ydpi="67.897568" />
    <path
       sodipodi:type="star"
       style="color:#000000;clip-rule:nonzero;display:inline;overflow:visible;visibility:visible;opacity:1;isolation:auto;mix-blend-mode:normal;color-interpolation:sRGB;color-interpolation-filters:linearRGB;solid-color:#000000;solid-opacity:1;fill:url(#radialGradient6891);fill-opacity:1;fill-rule:nonzero;stroke:#ffffff;stroke-width:0.75329542;stroke-linecap:butt;stroke-linejoin:miter;stroke-miterlimit:4;stroke-dasharray:none;stroke-dashoffset:0;stroke-opacity:1;color-rendering:auto;image-rendering:auto;shape-rendering:auto;text-rendering:auto;enable-background:accumulate"
       id="path4140"
       sodipodi:sides="19"
       sodipodi:cx="115.34186"
       sodipodi:cy="896.5097"
       sodipodi:r1="106.08233"
       sodipodi:r2="81.2435"
       sodipodi:arg1="0.41973747"
       sodipodi:arg2="0.58508445"
       inkscape:flatsided="false"
       inkscape:rounded="0"
       inkscape:randomized="0"
       d="m 212.21581,939.74045 -29.14405,1.63758 9.85815,27.47498 -28.09667,-7.9142 0.4029,29.18724 -24.00457,-16.60836 -9.09601,27.73661 -17.31122,-23.50274 -17.609231,23.28034 -8.741915,-27.85029 -24.214216,16.30121 0.774707,-29.17975 -28.195217,7.55562 L 47.045847,940.51154 17.925019,938.5028 36.458942,915.95172 9.5681967,904.5963 34.420225,889.28505 12.673591,869.8135 l 28.477031,-6.41221 -14.245936,-25.47765 29.016105,3.1817 -5.201471,-28.72285 26.410835,12.43083 4.406654,-28.85549 20.943541,20.33288 13.53725,-25.86118 13.20669,26.03154 21.20087,-20.06441 4.03869,28.90928 26.56706,-12.09335 -5.56697,28.65426 29.05428,-2.81179 -14.56936,25.29409 28.39303,6.77447 -21.99293,19.19294 24.65495,15.62661 -27.03322,11.01191 z"
       inkscape:transform-center-x="1.2610692"
       inkscape:transform-center-y="-0.51628504"
       inkscape:export-xdpi="67.897568"
       inkscape:export-ydpi="67.897568" />
    <path
       style="color:#000000;clip-rule:nonzero;display:inline;overflow:visible;visibility:visible;opacity:1;isolation:auto;mix-blend-mode:normal;color-interpolation:sRGB;color-interpolation-filters:linearRGB;solid-color:#000000;solid-opacity:1;fill:#008eff;fill-opacity:1;fill-rule:nonzero;stroke:none;stroke-width:12;stroke-linecap:butt;stroke-linejoin:miter;stroke-miterlimit:4;stroke-dasharray:none;stroke-dashoffset:0;stroke-opacity:0.52525252;color-rendering:auto;image-rendering:auto;shape-rendering:auto;text-rendering:auto;enable-background:accumulate"
       id="path4142-5"
       sodipodi:type="arc"
       sodipodi:cx="149.9695"
       sodipodi:cy="1063.5005"
       sodipodi:rx="133.70129"
       sodipodi:ry="123.26795"
       sodipodi:start="3.2418183"
       sodipodi:end="6.1838259"
       d="M 16.939169,1051.1666 A 133.70129,123.26795 0 0 1 150.02741,940.23255 133.70129,123.26795 0 0 1 283.01137,1051.2728"
       inkscape:export-xdpi="67.897568"
       inkscape:export-ydpi="67.897568"
       sodipodi:open="true" />
    <path
       style="fill:#008e78;fill-opacity:1;fill-rule:evenodd;stroke:#fff0c1;stroke-width:0.75329542px;stroke-linecap:butt;stroke-linejoin:miter;stroke-opacity:1"
       d="m 219.4037,969.67756 c -0.84037,0.63026 -1.68072,1.26054 -2.52108,1.89081 0,0.21008 0.14856,0.48171 0,0.63027 -0.29711,0.29712 -0.96342,-0.29712 -1.26053,0 -0.14857,0.14855 0.14856,0.4817 0,0.63027 -1.30405,1.30403 0.051,-1.99276 -1.26053,0.63026 -0.094,0.1879 0.14855,0.48171 0,0.63027 -0.14857,0.14855 -0.48172,-0.14856 -0.63028,0 -0.2971,0.29711 0.29711,0.96343 0,1.26053 -0.14855,0.14855 -0.48171,-0.14855 -0.63027,0 -0.2971,0.29711 0.29711,0.96343 0,1.26055 -0.14856,0.14854 -0.48171,-0.14856 -0.63026,0 -0.14856,0.14854 0,0.42016 0,0.63026 0,0.44674 0.0814,3.61865 0,3.7816 -0.13287,0.26575 -0.49739,0.36453 -0.63027,0.63027 -0.18791,0.37583 0.18791,0.88472 0,1.26053 -0.13287,0.26575 -0.49739,0.36453 -0.63026,0.63027 -0.19807,0.39615 0.19807,2.12493 0,2.52107 -0.13287,0.26575 -0.53632,0.34841 -0.63027,0.63028 -0.11295,0.33882 0,1.98744 0,2.52107 0,1.68071 0,3.36142 0,5.04216 0,1.05041 0,2.10084 0,3.15136 0,0.41408 -0.11853,1.53516 0,1.89073 0.14855,0.4457 0.48171,0.81488 0.63027,1.26058 0.13287,0.3987 -0.29713,0.9634 0,1.2605 0.14855,0.1487 0.4817,-0.1485 0.63026,0 0.14856,0.1487 -0.14856,0.4818 0,0.6303 0.14856,0.1485 0.44236,-0.094 0.63027,0 0.26575,0.1329 0.36452,0.4974 0.63026,0.6303 0.18792,0.094 0.48172,-0.1486 0.63027,0 0.14856,0.1486 -0.14855,0.4817 0,0.6303 0.14856,0.1484 0.48171,-0.1486 0.63028,0 0.14855,0.1484 -0.14857,0.4817 0,0.6302 0.14855,0.1486 0.4817,-0.1485 0.63026,0 0.14856,0.1486 -0.094,0.4424 0,0.6303 0.13287,0.2657 0.42017,0.4202 0.63027,0.6303 0.2101,0.21 0.36453,0.4973 0.63026,0.6302 0.16297,0.081 3.33487,0 3.78161,0 0.15285,0 1.87053,0.02 1.8908,0 0.14856,-0.1486 -0.14855,-0.4817 0,-0.6302 0.29712,-0.2972 0.96343,0.297 1.26053,0 0.14856,-0.1485 -0.14855,-0.4818 0,-0.6303 0.14856,-0.1486 0.48172,0.1485 0.63027,0 0.14856,-0.1486 -0.14855,-0.4817 0,-0.6303 0.14856,-0.1485 0.44236,0.094 0.63026,0 0.26576,-0.1329 0.36454,-0.4973 0.63029,-0.6302 0.1879,-0.094 0.4817,0.1484 0.63026,0 0.84036,-0.8404 -1.05045,-0.6303 0.63027,-0.6303 1.6807,0 -0.21009,0.21 0.63027,-0.6303 0.14855,-0.1485 0.48171,0.1485 0.63026,0 0.14855,-0.1485 -0.14855,-0.4816 0,-0.6303 0.14855,-0.1485 0.48171,0.1487 0.63027,0 0.14855,-0.1485 -0.14856,-0.4817 0,-0.6302 0.0203,-0.02 1.73795,0 1.89081,0 0.21007,0 0.42017,0 0.63027,0 0.21008,0 0.4817,-0.1486 0.63026,0 0.29711,0.2971 -0.29711,0.9634 0,1.2605 0.14856,0.1485 0.42017,0 0.63027,0 0,0.2101 -0.14856,0.4817 0,0.6303 0.14856,0.1486 0.42016,0 0.63026,0 0.43838,0 2.92342,-0.1139 3.15134,0 0.26575,0.1328 0.42018,0.4201 0.63027,0.6303 0.21009,0.2101 0.49739,0.3645 0.63026,0.6302 0.0829,0.1658 0,2.1915 0,2.5211 0,0.2101 0,0.4201 0,0.6303 0,0.21 -0.14854,0.4817 0,0.6302 0.0254,0.026 2.28963,0 2.52107,0 0.2101,0 0.48173,0.1486 0.63027,0 0.14855,-0.1485 -0.1879,-0.5363 0,-0.6302 0.56374,-0.2819 1.32708,0.2818 1.89081,0 0.26573,-0.133 0.36452,-0.4975 0.63027,-0.6303 0.22792,-0.114 2.71296,0 3.15133,0 0.3367,0 2.97095,-0.09 3.15134,0 0.26574,0.1328 0.36453,0.4973 0.63026,0.6303 0.16297,0.081 3.33487,0 3.78162,0 0.43838,0 2.9234,0.114 3.15132,0 0.26576,-0.133 0.36454,-0.4975 0.63028,-0.6303 0.37582,-0.1878 0.96342,0.297 1.26053,0 0.14856,-0.1485 -0.14854,-0.4817 0,-0.6303 0.31514,-0.3151 1.57568,0.3151 1.89082,0 0.14854,-0.1486 -0.14857,-0.4817 0,-0.6302 0.2971,-0.2972 0.96341,0.297 1.26053,0 0.14854,-0.1485 0,-0.4202 0,-0.6303 0.21008,0 0.48171,0.1486 0.63027,0 0.063,-0.063 0.063,-1.8278 0,-1.8908 -0.14856,-0.1486 -0.48173,0.1486 -0.63027,0 -0.29712,-0.2972 0.2971,-0.9635 0,-1.2605 -0.14856,-0.1486 -0.44237,0.094 -0.63027,0 -0.26574,-0.1329 -0.36453,-0.4975 -0.63026,-0.6303 -0.18792,-0.094 -0.48173,0.1485 -0.63028,0 -0.14855,-0.1486 0.11654,-0.4555 0,-0.6303 -0.32962,-0.4945 -0.93091,-0.76616 -1.26054,-1.26058 -0.11653,-0.17482 0.14856,-0.48167 0,-0.63021 -0.14854,-0.14854 -0.4817,0.14854 -0.63027,0 -0.14854,-0.14854 0.094,-0.44234 0,-0.63031 -0.13286,-0.26575 -0.49739,-0.36447 -0.63026,-0.63021 -0.094,-0.18797 0.14855,-0.48178 0,-0.63032 -0.14855,-0.14853 -0.48171,0.14854 -0.63028,0 0,-1.68072 0.2101,0.21011 -0.63026,-0.63031 -0.14854,-0.14854 0.094,-0.44234 0,-0.63021 -0.13287,-0.26574 -0.4974,-0.36457 -0.63027,-0.63031 -0.094,-0.18787 0.14856,-0.48168 0,-0.63021 -1.30404,-1.30411 0.051,1.99272 -1.26053,-0.63031 -0.094,-0.18787 0.14856,-0.48168 0,-0.63021 -0.14855,-0.14864 -0.4817,0.14853 -0.63026,0 -0.14856,-0.14864 0.14856,-0.48179 0,-0.63031 -0.14856,-0.14854 -0.48171,0.14852 -0.63027,0 -0.14856,-0.14854 0.14856,-0.48172 0,-0.63027 -0.14856,-0.14855 -0.48171,0.14855 -0.63027,0 -0.14856,-0.14855 0.094,-0.44236 0,-0.63027 -0.13288,-0.26574 -0.4974,-0.36452 -0.63026,-0.63026 -0.094,-0.18791 0.14854,-0.48171 0,-0.63027 -0.14856,-0.14856 -0.48172,0.14856 -0.63028,0 -0.14855,-0.14856 0.14856,-0.48171 0,-0.63026 -0.2971,-0.29713 -0.96342,0.29711 -1.26054,0 -0.2971,-0.29713 0.29712,-0.96344 0,-1.26054 -0.14855,-0.14856 -0.44235,0.094 -0.63026,0 -1.39355,-0.69678 -0.19559,-0.39117 -0.63027,-1.26053 -0.13286,-0.26575 -0.49739,-0.36453 -0.63026,-0.63028 -0.094,-0.1879 0.14855,-0.48171 0,-0.63027 -0.14856,-0.14855 -0.48172,0.14856 -0.63027,0 -1.30405,-1.30404 1.99276,0.051 -0.63026,-1.26053 -0.18792,-0.094 -0.48173,0.14856 -0.63028,0 -0.14855,-0.14855 0.094,-0.44236 0,-0.63027 -0.13287,-0.26574 -0.42018,-0.42017 -0.63027,-0.63027 -0.21008,-0.21009 -0.36452,-0.49739 -0.63026,-0.63026 -0.18791,-0.094 -0.48171,0.14856 -0.63027,0 -0.14856,-0.14855 0.094,-0.44236 0,-0.63027 -0.13287,-0.26574 -0.4974,-0.36452 -0.63026,-0.63027 -0.094,-0.18792 0.14855,-0.48171 0,-0.63027 -0.14856,-0.14856 -0.48172,0.14856 -0.63027,0 -0.14856,-0.14856 0.14855,-0.4817 0,-0.63026 -1.30405,-1.30405 0.051,1.99274 -1.26054,-0.63027 -0.094,-0.18791 0.14856,-0.4817 0,-0.63027 -0.14855,-0.14856 -0.44235,0.094 -0.63026,0 -0.26575,-0.13287 -0.36453,-0.4974 -0.63028,-0.63026 -0.1879,-0.094 -0.48171,0.14855 -0.63027,0 -0.14855,-0.14856 0.14856,-0.48172 0,-0.63027 -0.14855,-0.14856 -0.48171,0.14855 -0.63027,0 -0.14854,-0.14856 0.094,-0.44235 0,-0.63026 -0.13286,-0.26576 -0.49739,-0.36453 -0.63026,-0.63027 -0.094,-0.18791 0.14856,-0.48173 0,-0.63028 -0.14855,-0.14855 -0.44236,0.094 -0.63027,0 -2.62302,-1.3115 0.67378,0.0435 -0.63027,-1.26053 -0.14854,-0.14856 -0.4817,0.14855 -0.63026,0 -0.14855,-0.14856 0.14856,-0.48172 0,-0.63027 -0.29711,-0.29712 -0.96343,0.29712 -1.26054,0 -0.14856,-0.14855 0.14856,-0.48171 0,-0.63026 -0.14856,-0.14857 -0.44236,0.094 -0.63027,0 -2.70656,-1.35329 1.44604,0.0928 -1.26053,-1.26054 -0.18791,-0.094 -0.44235,0.094 -0.63027,0 -0.75632,-0.37816 -1.13448,-1.51265 -1.89079,-1.89081 -0.37583,-0.1879 -0.96344,0.29712 -1.26054,0 -0.84036,-0.84034 1.05044,-0.63027 -0.63028,-0.63027 -1.65773,0 0.2487,-0.50591 -1.26053,-1.26053 -0.18791,-0.094 -0.44236,0.094 -0.63026,0 -0.26574,-0.13287 -0.36453,-0.4974 -0.63027,-0.63026 -0.37582,-0.18791 -0.96343,0.29711 -1.26053,0 -0.14856,-0.14856 0.14854,-0.48172 0,-0.63027 -0.0203,-0.0203 -1.73795,0 -1.89082,0 -0.21007,0 -0.42017,0 -0.63026,0 -0.21009,0 -0.48171,-0.14855 -0.63027,0 -0.14855,0.14855 0.14856,0.48171 0,0.63027 -0.14855,0.14855 -0.42017,0 -0.63026,0 -0.63027,0.84035 -1.26054,1.68072 -1.8908,2.52106 z"
       id="path4178"
       inkscape:connector-curvature="0"
       inkscape:export-xdpi="67.897568"
       inkscape:export-ydpi="67.897568" />
    <path
       style="fill:#008e78;fill-opacity:1;fill-rule:evenodd;stroke:#fff0c1;stroke-width:0.75329542px;stroke-linecap:butt;stroke-linejoin:miter;stroke-opacity:1"
       d="m 134.91274,975.92818 c -0.05,0.003 -0.0956,0.0188 -0.13536,0.0529 -0.1593,0.13697 0.11218,0.49129 -0.047,0.62825 -0.31861,0.2739 -0.93929,-0.36806 -1.25793,-0.0942 -0.15932,0.13695 0.11218,0.49128 -0.047,0.62822 -0.33796,0.29053 -1.54675,-0.43325 -1.88472,-0.1427 -0.15931,0.13695 0.11219,0.49128 -0.047,0.62822 -0.15931,0.13696 -0.47039,-0.18407 -0.62971,-0.047 -0.15931,0.13696 0.11219,0.49129 -0.047,0.62824 -0.31863,0.27391 -0.86758,-0.25323 -1.25647,-0.0942 -0.27499,0.1125 -0.40179,0.46866 -0.67679,0.58116 -0.19444,0.0796 -0.43378,-0.12668 -0.62823,-0.047 -0.275,0.1125 -0.40977,0.44643 -0.67532,0.57969 -0.83975,0.4214 -1.73898,0.7124 -2.60857,1.06815 l 0,-0.002 -2.56151,0.43843 c -0.4348,0.17787 -0.84797,0.41949 -1.30356,0.53409 -0.20373,0.0512 -0.42596,-0.0985 -0.6297,-0.047 -0.45559,0.11459 -0.84797,0.41801 -1.30356,0.5326 -0.20374,0.0512 -0.43378,-0.12668 -0.62823,-0.047 -0.275,0.11251 -0.38865,0.50868 -0.67679,0.58115 -0.40749,0.10249 -0.849,-0.19665 -1.25648,-0.0942 -0.28814,0.0724 -0.38717,0.50869 -0.6753,0.58116 -0.57988,0.14587 -1.30633,-0.28859 -1.88619,-0.14272 -0.45559,0.1146 -0.84797,0.41947 -1.30355,0.53408 -0.4075,0.10249 -0.86905,-0.25472 -1.25795,-0.0957 -0.27498,0.11251 -0.38718,0.5087 -0.67532,0.58117 -0.40749,0.10249 -0.86905,-0.25324 -1.25794,-0.0942 -0.19445,0.0796 0.11218,0.49128 -0.047,0.62822 -1.67596,-0.12647 0.22589,-0.19356 -0.67532,0.58118 -1.39848,1.20221 0.20018,-1.98428 -1.30502,0.53259 -0.10784,0.18031 0.0607,0.44794 -0.047,0.62824 -0.30499,0.50998 -0.98623,0.69409 -1.35211,1.16231 -1.40856,0.21199 -0.42997,1.26893 -0.77095,1.8391 -0.1525,0.25499 -0.45002,0.38748 -0.67532,0.58115 -0.25692,0.61268 -0.47849,1.24111 -0.77095,1.83763 -0.0413,0.0843 -1.4381,2.38956 -1.44627,2.41882 -0.16803,0.60077 -0.3233,4.28163 -0.37959,5.02737 -0.0317,0.41892 0.0366,0.85909 -0.0957,1.25792 -0.14792,0.4459 -0.59586,0.757 -0.7224,1.2094 -0.16976,0.607 0.0556,1.2866 -0.14271,1.8847 -0.0936,0.2821 -0.56043,0.3072 -0.67533,0.5812 -0.14207,0.3388 -0.23765,3.138 -0.28542,3.7709 -0.0162,0.2094 -0.0312,0.4188 -0.047,0.6283 -0.0162,0.2094 0.11218,0.4913 -0.047,0.6283 -0.159323,0.1369 -0.433799,-0.1268 -0.62825,-0.048 -0.274982,0.1125 -0.388642,0.5087 -0.676788,0.5811 -0.407478,0.1024 -0.867571,-0.2533 -1.256461,-0.094 -0.824978,0.3375 -1.351512,1.161 -2.027431,1.742 l -1.352105,1.1624 c -0.225303,0.1936 -0.49238,0.347 -0.675316,0.5811 -0.289263,0.3702 -0.367622,0.9032 -0.72387,1.2094 -0.356227,0.3063 -0.895648,0.3036 -1.305034,0.534 -0.600901,0.3383 -1.44934,1.5071 -2.027412,1.7435 -0.194439,0.08 -0.468928,-0.1841 -0.628245,-0.048 -0.159317,0.1369 0.06068,0.4479 -0.04704,0.6283 -0.152489,0.2549 -0.451486,0.3875 -0.676779,0.5811 -0.225303,0.1936 -0.400324,0.4687 -0.675326,0.5811 -0.19445,0.08 -0.468919,-0.1856 -0.628236,-0.048 -0.318625,0.274 0.223001,0.984 -0.09567,1.2579 -0.159306,0.137 -0.468908,-0.184 -0.628235,-0.048 -0.318624,0.274 0.224483,0.9825 -0.09418,1.2565 -0.159317,0.137 -0.470391,-0.1841 -0.629709,-0.048 -0.159316,0.137 0.06068,0.4478 -0.04704,0.6282 -0.152507,0.255 -0.522818,0.3262 -0.675316,0.5812 -0.107828,0.1802 0.06068,0.4479 -0.04704,0.6282 -0.152497,0.255 -0.524301,0.3262 -0.676788,0.5811 -0.107839,0.1804 0.06068,0.448 -0.04704,0.6282 -0.152498,0.2551 -0.522839,0.3263 -0.675317,0.5813 -0.215657,0.3605 0.223,0.9825 -0.09567,1.2564 -0.159328,0.137 -0.468929,-0.1841 -0.628236,-0.048 -0.159317,0.1369 0.06068,0.4479 -0.04704,0.6282 -0.152498,0.255 -0.524291,0.3262 -0.676789,0.5811 -0.107828,0.1804 0.112187,0.4914 -0.04704,0.6282 -0.159308,0.137 -0.468918,-0.184 -0.628235,-0.048 -0.450884,0.3877 0.355269,0.8689 -0.09567,1.2564 -0.159307,0.137 -0.468909,-0.1839 -0.628226,-0.048 -0.159307,0.137 0.06068,0.4481 -0.04704,0.6283 -0.152488,0.2551 -0.522838,0.3262 -0.675326,0.5812 -0.107839,0.1803 0.112177,0.4928 -0.04704,0.6297 -0.159317,0.137 -0.470381,-0.1855 -0.629699,-0.049 -0.159307,0.1369 0.112178,0.4927 -0.04704,0.6297 -0.159306,0.137 -0.468918,-0.1856 -0.628245,-0.048 -0.318624,0.2739 0.224483,0.984 -0.09418,1.2579 -0.159327,0.137 -0.470391,-0.1856 -0.629709,-0.049 -0.318614,0.2739 0.224484,0.984 -0.09418,1.258 -0.159307,0.1369 -0.468919,-0.1841 -0.628236,-0.048 -0.162647,0.1398 -0.02718,2.3731 -0.189795,2.5129 -0.159317,0.1369 -0.468928,-0.1841 -0.628236,-0.047 -0.159327,0.137 -0.03281,0.4188 -0.04852,0.6283 -0.01621,0.2094 -0.03133,0.4186 -0.04704,0.6282 -0.110685,1.4664 -0.221844,2.9342 -0.332509,4.4006 -0.02135,0.2831 -0.03123,1.7006 -0.141252,1.8847 -0.152498,0.255 -0.524281,0.3262 -0.676779,0.5811 -0.107839,0.1803 0.112177,0.4913 -0.04704,0.6283 -0.159318,0.137 -0.468928,-0.1842 -0.628246,-0.047 -0.02174,0.019 -0.131221,1.7324 -0.142705,1.8847 -0.02135,0.283 -0.03122,1.7022 -0.141241,1.8862 -0.152508,0.2549 -0.524301,0.3261 -0.676799,0.5812 0.59254,0.045 0.614331,1.1223 1.16232,1.352 0.387486,0.1626 0.868985,-0.068 1.256471,0.094 0.273995,0.1149 0.347047,0.494 0.581155,0.6769 0.370153,0.2893 0.776178,0.8749 1.209391,1.0566 13.272475,-0.07 55.699584,0.042 63.920094,-0.1747 2.57114,0.4324 2.44934,-0.2066 2.44934,-0.2066 0.21566,-0.3607 -0.22299,-0.984 0.0957,-1.2579 0.15931,-0.1369 0.46892,0.1855 0.62825,0.049 0.15931,-0.1369 -0.0607,-0.4494 0.047,-0.6297 0.15249,-0.255 0.5243,-0.3262 0.67679,-0.5812 0.10783,-0.1802 0.0313,-0.4187 0.047,-0.6282 0.0162,-0.2096 0.0314,-0.4187 0.047,-0.6282 0.0791,-1.0475 0.15779,-2.0952 0.23688,-3.1428 0.0162,-0.2094 0.0327,-0.4186 0.0485,-0.6281 0.0162,-0.2096 -0.0607,-0.4479 0.047,-0.6283 0.1525,-0.255 0.52282,-0.3261 0.67533,-0.5812 0.10783,-0.1802 0.0314,-0.4187 0.047,-0.6282 0.0162,-0.2095 0.0328,-0.4188 0.0485,-0.6282 0.0791,-1.0475 0.1578,-2.0951 0.23688,-3.1427 0.11068,-1.4664 0.22037,-2.9327 0.33104,-4.399 0.0162,-0.2096 -0.11071,-0.4914 0.0486,-0.6283 0.15931,-0.137 0.46891,0.1841 0.62823,0.048 0.31862,-0.274 -0.12151,-0.8974 0.0942,-1.258 0.1525,-0.255 0.52429,-0.3262 0.67679,-0.5812 0.10783,-0.1802 -0.11219,-0.4913 0.047,-0.6283 0.15931,-0.1369 0.46892,0.1857 0.62825,0.048 0.1593,-0.1369 -0.1122,-0.4927 0.047,-0.6297 0.15931,-0.137 0.46891,0.1856 0.62822,0.049 0.35624,-0.3062 0.43462,-0.8407 0.72388,-1.2108 0.18294,-0.2341 0.45,-0.386 0.67531,-0.5797 0.2253,-0.1937 0.41788,-0.4355 0.6768,-0.5812 0.40937,-0.2304 0.89418,-0.3036 1.30355,-0.534 0.51783,-0.2915 0.83427,-0.8709 1.3521,-1.1623 0.40937,-0.2306 0.89565,-0.3038 1.30503,-0.5341 0.76164,-0.4287 1.26577,-1.3133 2.02742,-1.742 0.40939,-0.2305 0.94879,-0.2279 1.30502,-0.534 0.15932,-0.137 -0.11218,-0.4914 0.047,-0.6283 0.31864,-0.274 0.93785,0.3681 1.25648,0.094 0.15932,-0.137 -0.11219,-0.4914 0.047,-0.6283 0.15932,-0.1369 0.42023,0.032 0.62971,0.048 l 4.39913,0.3325 4.39912,0.3325 c 0.62847,0.048 1.3035,-0.1024 1.88472,0.1413 0.274,0.115 0.32617,0.5242 0.58116,0.6767 0.3606,0.2158 0.98403,-0.2243 1.25793,0.094 1.20222,1.3984 -1.98428,-0.2002 0.53261,1.305 0.1803,0.1079 0.44793,-0.06 0.62823,0.048 0.25499,0.1524 0.32617,0.5228 0.58116,0.6753 0.18031,0.1078 0.4494,-0.059 0.62971,0.049 0.25499,0.1525 0.32468,0.5227 0.57968,0.6753 0.36062,0.2157 0.89734,-0.1215 1.25794,0.094 0.50997,0.3051 0.65232,1.0472 1.16231,1.3521 0.36062,0.2157 0.98257,-0.2228 1.25649,0.096 0.13694,0.1593 -0.1841,0.469 -0.047,0.6282 0.27392,0.3187 0.89586,-0.1214 1.25648,0.094 0.255,0.1526 0.32615,0.5243 0.58114,0.6768 0.21871,0.1308 2.70551,0.2039 3.14266,0.2368 0.32264,0.025 2.35108,0.2818 2.51442,0.19 3.82733,-2.1543 0.48814,-0.2673 1.39918,-1.7907 0.30499,-0.5099 1.04564,-0.6522 1.35064,-1.1622 0.21565,-0.3607 -0.223,-0.9826 0.0957,-1.2566 0.15932,-0.1369 0.46892,0.1842 0.62824,0.047 0.0307,-0.027 0.21451,-2.8463 0.23688,-3.1426 0.0224,-0.2963 0.2632,-3.112 0.23688,-3.1427 -0.13697,-0.1593 -0.49128,0.1123 -0.62824,-0.047 -0.13696,-0.1593 0.18409,-0.4689 0.047,-0.6282 -0.13695,-0.1593 -0.49128,0.1122 -0.62824,-0.048 -1.20221,-1.3984 1.98427,0.2002 -0.53261,-1.3051 -0.1803,-0.1078 -0.49275,0.1122 -0.62969,-0.048 -0.13696,-0.1592 0.18555,-0.4689 0.0485,-0.6282 -0.29053,-0.3379 -1.59567,0.1953 -1.88619,-0.1427 -0.13695,-0.1593 0.18408,-0.4689 0.047,-0.6283 -0.13695,-0.1593 -0.41874,-0.032 -0.62823,-0.048 -0.20949,-0.016 -0.41875,-0.032 -0.62824,-0.048 -0.20947,-0.016 -0.41874,-0.033 -0.62824,-0.048 -0.20947,-0.016 -0.49127,0.1123 -0.62822,-0.048 -0.13696,-0.1593 0.18407,-0.4689 0.047,-0.6282 -0.2739,-0.3186 -0.98256,0.223 -1.25648,-0.096 0.12647,-1.6759 0.19358,0.2258 -0.58115,-0.6753 -0.13982,-0.1627 0.32961,-2.3518 0.18978,-2.5145 -0.13693,-0.1592 -0.49274,0.1122 -0.6297,-0.047 -0.13695,-0.1594 0.18557,-0.4689 0.0485,-0.6283 -0.13695,-0.1592 -0.49275,0.1123 -0.6297,-0.048 -0.13696,-0.1593 0.12815,-0.4338 0.0486,-0.6283 -0.30587,-0.7477 -1.24532,-0.973 -1.79054,-1.3991 -0.23411,-0.1829 -0.32616,-0.5243 -0.58115,-0.6768 -1.67596,-0.1265 0.19357,0.2259 -0.58116,-0.6754 -0.13695,-0.1592 -0.49129,0.1123 -0.62823,-0.048 -0.13697,-0.1593 0.18406,-0.4704 0.047,-0.6297 -0.13697,-0.1593 -0.49129,0.1122 -0.62825,-0.048 -0.13694,-0.1594 0.18409,-0.469 0.047,-0.6283 -0.13695,-0.1593 -0.54869,0.1474 -0.62824,-0.048 -0.1134,-0.2772 0.19713,-2.616 0.23688,-3.1427 0.0174,-0.2308 0.2132,-2.4871 0.1898,-2.5144 -0.13697,-0.1593 -0.49129,0.1122 -0.62825,-0.047 -0.30623,-0.3563 -0.22783,-0.94734 -0.53406,-1.30361 -0.13697,-0.15931 -0.49129,0.11068 -0.62824,-0.0484 -0.13695,-0.1593 0.12667,-0.43384 0.047,-0.62823 -0.86437,-2.1129 -0.29793,0.76076 -1.16231,-1.35214 -0.0796,-0.19449 0.12667,-0.43374 0.047,-0.62823 -0.0708,-0.17315 -1.58142,-1.93136 -1.74199,-2.02741 -0.18031,-0.10782 -0.49277,0.11216 -0.62972,-0.0474 -0.27391,-0.31862 0.25472,-0.86908 0.0957,-1.25795 -0.11249,-0.27504 -0.46866,-0.40034 -0.58115,-0.67528 -0.0813,-0.19854 0.1214,-1.6017 0.14272,-1.88475 0.0949,-1.25696 0.18909,-2.51393 0.28395,-3.77088 0.0162,-0.20949 0.0313,-0.42022 0.047,-0.62971 0.0162,-0.20947 0.18556,-0.46892 0.0486,-0.62824 -0.15898,-0.18494 -2.18633,0.007 -2.51441,-0.18979 -0.25499,-0.15251 -0.32617,-0.52283 -0.58116,-0.67532 -0.23978,-0.14339 -1.76739,-0.005 -1.88618,-0.14271 -0.13695,-0.15933 0.18555,-0.46892 0.0486,-0.62824 -0.15899,-0.18494 -2.18634,0.007 -2.51443,-0.18981 -0.25498,-0.15249 -0.32616,-0.5228 -0.58115,-0.6753 -0.48382,-0.28933 -1.4009,0.1466 -1.88471,-0.14272 -0.25499,-0.1525 -0.32616,-0.52282 -0.58116,-0.67532 -0.3801,-0.22731 -2.13431,0.0375 -2.51441,-0.18979 -0.25499,-0.15249 -0.32617,-0.52431 -0.58117,-0.67679 -0.3606,-0.21566 -0.89585,0.1215 -1.25646,-0.0942 -0.25499,-0.15249 -0.32616,-0.5243 -0.58116,-0.67678 -0.36061,-0.21565 -0.89733,0.12152 -1.25793,-0.0942 -0.25499,-0.15251 -0.3247,-0.52429 -0.57969,-0.67678 -0.18031,-0.10783 -0.42021,-0.0313 -0.62971,-0.047 -1.04747,-0.0791 -2.09372,-0.15781 -3.14118,-0.23689 -0.20948,-0.0162 -0.42022,-0.0313 -0.62972,-0.047 -0.20946,-0.0162 -0.44793,0.0607 -0.62824,-0.047 -0.25499,-0.1525 -0.32615,-0.52429 -0.58114,-0.67678 -0.38155,-0.22817 -2.76114,-0.009 -3.14266,-0.23689 -0.25498,-0.15249 -0.3247,-0.52281 -0.57969,-0.67531 -0.3801,-0.22732 -2.13431,0.0375 -2.51441,-0.1898 -0.25499,-0.15248 -0.32616,-0.52429 -0.58116,-0.67678 -0.15637,-0.0935 -3.32542,-0.25035 -3.77089,-0.28396 -1.47391,-0.11122 0.28521,0.16997 -1.2094,-0.72387 -0.15901,-0.0951 -2.18576,-0.16498 -2.51441,-0.1898 -0.1571,-0.0122 -0.3428,-0.10979 -0.49288,-0.10005 z m -61.855551,72.50622 c -0.209451,-0.016 -0.03093,0.4187 -0.04704,0.6282 -0.01572,0.2095 -0.256572,0.612 -0.04704,0.6283 0.418992,0.032 -0.121506,-0.8959 0.09418,-1.2565 z"
       id="path4176"
       inkscape:connector-curvature="0"
       sodipodi:nodetypes="ccccccccccscscccccccsccsccsccssccscccccccscccccssssccscccccscccccccccscccccccccccccccccccccccscccccccsccccccccccccccccccccsccccscccsssscccccccccscscssscccccccccscccccsccccccccccccccccscsccccccccccccccccscccccscccccsccsscscccccccsccsccccccc"
       inkscape:export-xdpi="67.897568"
       inkscape:export-ydpi="67.897568" />
    <path
       style="color:#000000;clip-rule:nonzero;display:inline;overflow:visible;visibility:visible;opacity:1;isolation:auto;mix-blend-mode:normal;color-interpolation:sRGB;color-interpolation-filters:linearRGB;solid-color:#000000;solid-opacity:1;fill:url(#radialGradient4186);fill-opacity:1;fill-rule:nonzero;stroke:#0000c9;stroke-width:9.03954411;stroke-linecap:butt;stroke-linejoin:miter;stroke-miterlimit:4;stroke-dasharray:none;stroke-dashoffset:0;stroke-opacity:0.52525252;color-rendering:auto;image-rendering:auto;shape-rendering:auto;text-rendering:auto;enable-background:accumulate"
       id="path4142"
       sodipodi:type="arc"
       sodipodi:cx="150.34438"
       sodipodi:cy="1064.1039"
       sodipodi:rx="133.70129"
       sodipodi:ry="123.26795"
       sodipodi:start="3.2418183"
       sodipodi:end="6.1838259"
       d="M 17.314047,1051.7699 A 133.70129,123.26795 0 0 1 150.40228,940.83594 133.70129,123.26795 0 0 1 283.38624,1051.8762"
       inkscape:export-xdpi="67.897568"
       inkscape:export-ydpi="67.897568"
       sodipodi:open="true" />
    <path
       style="fill:none;fill-rule:evenodd;stroke:#000000;stroke-width:0.75329542px;stroke-linecap:butt;stroke-linejoin:miter;stroke-opacity:1"
       d="m 75.461473,1051.5201 70.749567,0"
       id="path4189"
       inkscape:connector-curvature="0"
       sodipodi:nodetypes="cc"
       inkscape:export-xdpi="67.897568"
       inkscape:export-ydpi="67.897568" />
  </g>
</svg>
